<?xml version="1.0" standalone="no"?>
<!DOCTYPE svg PUBLIC "-//W3C//DTD SVG 20010904//EN"
 "http://www.w3.org/TR/2001/REC-SVG-20010904/DTD/svg10.dtd">
<svg version="1.0" xmlns="http://www.w3.org/2000/svg"
 width="360.000000pt" height="360.000000pt" viewBox="0 0 360.000000 360.000000"
 preserveAspectRatio="xMidYMid meet">
<metadata>
Created by potrace 1.11, written by Peter Selinger 2001-2013
</metadata>
<g transform="translate(0.000000,360.000000) scale(0.100000,-0.100000)"
fill="#000000" stroke="none">
<path d="M1615 3564 c-103 -12 -192 -29 -280 -51 -806 -208 -1357 -953 -1322
-1788 19 -436 186 -833 482 -1143 266 -279 580 -451 965 -527 112 -23 409 -31
537 -16 270 33 531 129 758 278 87 57 246 185 292 235 l23 24 -153 -4 c-180
-5 -312 12 -451 59 -259 86 -470 251 -799 623 -186 212 -454 481 -525 528
l-54 36 89 173 c92 180 278 496 409 696 189 287 342 421 519 454 110 20 242
-9 322 -72 42 -34 113 -118 113 -135 0 -6 -57 -76 -126 -155 -160 -183 -150
-173 -168 -166 -13 5 -12 14 11 58 34 64 37 138 8 187 -52 88 -205 103 -345
35 -116 -57 -302 -273 -481 -560 -85 -136 -209 -361 -209 -379 0 -5 41 -22 90
-37 181 -58 355 -189 613 -461 283 -299 480 -497 556 -558 89 -72 247 -149
360 -177 85 -21 190 -26 287 -15 l52 7 71 107 c72 109 176 314 187 370 5 23 3
30 -10 30 -23 0 -21 5 23 68 59 85 81 200 88 457 4 155 2 225 -11 311 -103
704 -622 1280 -1315 1460 -170 44 -448 66 -606 48z m-575 -1779 l0 -1206 -122
3 -123 3 -3 1203 -2 1202 125 0 125 0 0 -1205z"/>
</g>
</svg>
