<?xml version="1.0" encoding="utf-8"?>
<!-- Generator: Adobe Illustrator 22.0.1, SVG Export Plug-In . SVG Version: 6.00 Build 0)  -->
<svg version="1.1" id="Layer_1" xmlns="http://www.w3.org/2000/svg" xmlns:xlink="http://www.w3.org/1999/xlink" x="0px" y="0px"
	 viewBox="0 0 330 125" style="enable-background:new 0 0 330 125;" xml:space="preserve">
<style type="text/css">
	.st0{fill:#5F1022;}
	.st1{fill:#AE591E;}
	.st2{fill:#EAAA1D;}
</style>
<g>
	<polygon class="st0" points="178.1,22.8 150.7,80.7 150.7,22.8 143.6,22.8 143.6,94.3 151.9,94.3 179.3,36.4 179.3,94.3 
		186.4,94.3 186.4,22.8 	"/>
	<polygon class="st0" points="229.3,22.8 229.3,80.7 201.9,22.8 193.6,22.8 193.6,94.3 200.7,94.3 200.7,36.4 228.1,94.3 
		236.4,94.3 236.4,22.8 	"/>
	<path class="st1" d="M155.1,4.3c-8.1-1-7.8,6.8-6.2,9.6c1.6,2.7,4.9,3.9,9.8,5.4c4.4,1.4,6.9,2.1,6.9,6.9c0,2.9-3.5,4.9-3.5,4.9
		c7.7,0.3,8.4-7.1,6.4-11.4c0.9,0.7,2.7,0.9,3.4-0.5c1.6-2.9-2.5-5.2-4.1-7.3c-1.2-1.7-0.9-3.1,0.3-3.5c-1.6-2-4.3-0.9-4.6,0.9
		c-0.4,2.6,1.4,4.5,1,4.9c-0.8,0.6-8.8,0.4-7.7-5.3C156.4,9.3,155.8,6.1,155.1,4.3"/>
	<path class="st2" d="M157.7,20.8c2.3,0.5,6.2,1.6,6.4,4c0,1.6-1.1,2.7-2.7,3.2c-2,0.5-0.8,3.3,1,3c4.1-0.7,4.8-4.9,3.9-7.4
		c-1.1-2.5-4.3-4.2-7.1-5c-3.4-1.2-6-2.6-7.3-4.1c-3.9-4.5-0.9-10.3,3-10c0,0-1.1,1-0.8,2.4c0.6,2.7,3.5,3.2,5.4,1.5
		c1.3-1.1,1.6-4-0.3-6.4C155.9-2,145.3,1,145.7,9.6C145.7,16.4,154.1,20,157.7,20.8"/>
	<rect x="303.1" y="22.8" class="st0" width="21.4" height="7.1"/>
	<polygon class="st0" points="276,90.6 270.8,90.6 270.8,101.5 276,101.5 278.1,101.5 278.1,94.2 322,94.2 322,101.5 329.3,101.5 
		329.3,90.6 	"/>
	<path class="st1" d="M283.1,83.4c-1.5,1-0.3,2.4,1.2,1.7c2.6-1.3,5.7-6.3,9-9.2c-1,3.5-8.3,14.6-13.4,11.4S282.2,81,283.1,83.4"/>
	<path class="st1" d="M313.9,41.3c1-1.3,8.1,6.6-5.2,12.2c9.6,1.1,14.3-9.3,10.6-16.3c-3.7-7-12.2-3.7-14-1.3
		c-1.9,2.4-1.7,6.6,2.2,7C311.4,43.3,313.9,41.3,313.9,41.3"/>
	<path class="st2" d="M306,46.8c3.6,2.7,9,2,9.2-2.9c0.4-4.9-6.5-5.8-9.2-2.5c-1.3-1.3-0.9-3.6,0.2-5.2c1.1-1.1,3.6-2.9,6.1-1.6
		c-1.3,0.7-2.5,2.7-1.8,3.1c2.9-1.1,6.5-0.7,7.6,0.9c3.4,3.8,1.3,10.3-4.3,13.2c-2.9,1.6-8.2,2.3-10.1,0.7c-1.5,2.2,0.7,4.9,4.7,5.8
		c-5.4,1.8-11,4-13.2,8.8c0.7-0.2,3.1,0.7,7-0.7c-2.9,5.2-9.9,2.2-10.6,6.7c1.8,0,2.2,1.1,4,0.2c-2.7,2.2-4.3,4.7-5.6,6.5
		c-0.4,0.7-1.1,1.6-2,2.9c-2,2.7-4.9,6-7.9,3.8c-1-0.8-0.9-2.3-0.5-3c0.7-0.9,2.5-0.8,3.4-0.4c1.6-1.1,0.7-2.7-0.9-2.9
		c-1.8-0.5-4,0.9-4.5,2.7c-1.1,3.4,2.9,6.5,6.5,5.2c1.3-0.5,2.7-1.6,3.8-2.5c1.3-1.3,2.5-2.5,3.1-3.6c0,2,0.5,3.4,1.4,4.5
		c0.7,0.9,1.8,2,4.3,2.2c2.7,0.2,4.7-0.4,7.2-1.3c1.8-0.4,3.4-1.3,4.7-1.3c2.5,0,3.1,0.9,4,1.8c1.3,1.1,4,1.5,5.8,1.1
		c2.4-0.5,3-2.6,4.3-2.9c-0.5-2-2.6-0.7-3.4-1.6c-1.8-1.9,2.9-4.3-1.1-6.1c6.9-6.7,2.2-12.8,0.4-12.6c-0.4,0,0,0.7,0.2,1.3
		c0.2,1.6-1.6,3.4-3.4,4.5c-1.8,0.9-3.4,0.7-4.9,1.8c-0.9,0.4-1.8,1.3-2.2,2.5c-1.8,0.2-0.4-3.6-3.8-3.1c-1.1,3.1-2.9,3.4-4,4.9
		c-1.3,1.6-0.4,3.6,0.7,4.5c1.3,1.1,3.1,0.9,3.8,1.8c0.5,0.7-4,3.1-7.4,2.9c-2.5,0-4.3-1.8-4.3-4.7c0.2-2.2,1.3-3.8,2.9-5.4
		c4-4,9.9-7,14.6-10.5c5.4-4,9.7-9,11.7-15.3c1.8-5.2,1.6-10.6-1.8-15.3c-1.1-2-4.9-4.9-7.4-5.6c-0.2,0.7-0.2,1.1,0,1.6
		c-2.2-0.2-4.5,0-6.3,0.9c-2.7,1.6-4.9,4.7-4.5,8.1C302.9,43.2,304.2,45.2,306,46.8"/>
	<path class="st1" d="M323,46.2c-1.2,9.6-9.6,18.2-20.2,24.5c3.4-3.9,10.8-9.1,12-12.3c-3,1.7-6.3,3.2-6.3,2.3
		c0-0.9,3.2-1.3,2.5-2.5c-0.9-1.6,1.8-1.7,5.6-3.9C320.4,52,321.7,49,323,46.2"/>
	<path class="st1" d="M320.6,70.7c0.2,2.4-2.1,6.8-3.8,8.3c-2.8,2.5-4.9,3.7-6.3,3.8c-1.4,0.1-1.1-3.6,2.7-4.7
		C317,76.9,318.7,74.6,320.6,70.7"/>
	<polygon class="st0" points="136.4,30 136.4,22.8 93.6,22.8 93.6,72.8 136.4,72.8 136.4,65.7 100.7,65.7 100.7,51.4 129.3,51.4 
		129.3,44.3 100.7,44.3 100.7,30 	"/>
	<rect x="0.7" y="22.8" class="st0" width="7.1" height="71.4"/>
	<polygon class="st0" points="78.1,22.8 40.8,67.6 44.8,72.8 79.3,31.4 79.3,72.8 86.4,72.8 86.4,22.8 	"/>
	<path class="st0" d="M268.6,28.8c-10.5,0-19,8.5-19,19c0,10.5,8.5,19,19,19s19-8.5,19-19C287.6,37.3,279.1,28.8,268.6,28.8
		 M294.8,47.8c0,14.5-11.7,26.2-26.2,26.2c-14.5,0-26.2-11.7-26.2-26.2c0-14.5,11.7-26.2,26.2-26.2C283,21.6,294.8,33.4,294.8,47.8"
		/>
	<path class="st0" d="M70.4,71.7l-4.8,5.8c6.5,1,11,9.4,6,15.3c-3.4,4-8.1,4.6-13.1,3.4c-9.7-2.3-11.2-13.8-26-31.5
		c-4.4-5.3-12.1-9.9-18.3-10.8c4.7-7.8,12.3-22.2,18.4-26.8c3.2-2.3,7.3-2.5,9.5-1.6c2.9,1.1,3.6,4.4,0.7,8.2l1.4,1l8.4-9.5
		c-3.6-6.1-8.8-7-13.6-6.1c-5.4,0.9-10.4,6.8-14.1,12.2c-4.5,6.8-12.2,19.5-15.4,27c9.6,4.1,19.3,16.5,23.3,23.1
		C39.4,92.2,48.4,100,59.1,100c6.6,0,10.5-1.7,13.8-5C79.8,88.2,78.2,77.3,70.4,71.7"/>
	<path class="st1" d="M103.4,113.9c0,1.9-1.3,2.8-3.8,2.8h-1.9c-0.2,0-0.3-0.1-0.3-0.3v-4.9c0-0.2,0.1-0.3,0.3-0.3h1.9
		C102.1,111.1,103.4,111.9,103.4,113.9z M94.6,108c-0.4,0-0.6,0.2-0.6,0.6v15.6c0,0.4,0.2,0.6,0.6,0.6h2.2c0.4,0,0.6-0.2,0.6-0.6
		v-4.1c0-0.2,0.1-0.3,0.3-0.3h1.9c4.8,0,7.3-2.1,7.3-6c0-3.9-2.4-5.8-7.1-5.8H94.6z"/>
	<path class="st1" d="M121.4,117.9c0,0.1-0.1,0.2-0.3,0.2h-3.6c-0.2,0-0.3,0-0.3-0.2c0-0.1,0-0.1,0.1-0.2l2-4.2l2,4.2
		C121.4,117.8,121.4,117.9,121.4,117.9z M119.4,107.7c-0.4,0-0.6,0.3-1.1,1.2l-7.4,15.1c-0.1,0.2-0.1,0.3-0.1,0.4
		c0,0.2,0.2,0.4,0.5,0.4h2.2c0.6,0,0.7-0.1,1-0.6l1.3-2.9c0.1-0.3,0.2-0.3,0.5-0.3h6.2c0.3,0,0.3,0,0.5,0.3l1.3,2.9
		c0.3,0.6,0.4,0.6,1,0.6h2.2c0.4,0,0.5-0.1,0.5-0.3c0-0.1,0-0.2-0.1-0.4l-7.4-15.1C120.1,107.9,119.8,107.7,119.4,107.7z"/>
	<path class="st1" d="M135.1,107.8c-0.4,0-0.5,0.3-0.5,0.9v15.6c0,0.4,0.2,0.6,0.6,0.6h2.2c0.4,0,0.6-0.2,0.6-0.6v-9l4.1,4.8
		c0.4,0.5,0.6,0.6,0.9,0.6c0.3,0,0.4-0.1,0.9-0.6l4.1-4.8v9c0,0.4,0.2,0.6,0.6,0.6h2.2c0.4,0,0.6-0.2,0.6-0.6v-15.6
		c0-0.6-0.1-0.9-0.5-0.9c-0.3,0-0.5,0.2-1,0.7l-6.7,7.7l-6.8-7.7C135.7,107.9,135.4,107.8,135.1,107.8z"/>
	<path class="st1" d="M168.4,117.9c0,0.1-0.1,0.2-0.3,0.2h-3.6c-0.2,0-0.3,0-0.3-0.2c0-0.1,0-0.1,0.1-0.2l2-4.2l2,4.2
		C168.3,117.8,168.4,117.9,168.4,117.9z M166.4,107.7c-0.4,0-0.6,0.3-1.1,1.2l-7.4,15.1c-0.1,0.2-0.1,0.3-0.1,0.4
		c0,0.2,0.2,0.4,0.5,0.4h2.2c0.6,0,0.7-0.1,1-0.6l1.3-2.9c0.1-0.3,0.2-0.3,0.5-0.3h6.2c0.3,0,0.3,0,0.5,0.3l1.3,2.9
		c0.3,0.6,0.4,0.6,1,0.6h2.2c0.4,0,0.5-0.1,0.5-0.3c0-0.1,0-0.2-0.1-0.4l-7.4-15.1C167,107.9,166.8,107.7,166.4,107.7z"/>
	<path class="st1" d="M191,113.9c0,1.9-1.3,2.8-3.8,2.8h-1.9c-0.2,0-0.3-0.1-0.3-0.3v-4.9c0-0.2,0.1-0.3,0.3-0.3h1.9
		C189.7,111.1,191,111.9,191,113.9z M182.1,108c-0.4,0-0.6,0.2-0.6,0.6v15.6c0,0.4,0.2,0.6,0.6,0.6h2.2c0.4,0,0.6-0.2,0.6-0.6v-4.1
		c0-0.2,0.1-0.3,0.3-0.3h1.9c4.8,0,7.3-2.1,7.3-6c0-3.9-2.4-5.8-7.1-5.8H182.1z"/>
	<path class="st1" d="M202,108c-0.4,0-0.6,0.2-0.6,0.6v15.6c0,0.4,0.2,0.6,0.6,0.6h2.2c0.4,0,0.6-0.2,0.6-0.6v-6.1
		c0-0.3,0.1-0.3,0.3-0.3h6.7c0.3,0,0.3,0.1,0.3,0.3v6.1c0,0.4,0.2,0.6,0.6,0.6h2.2c0.4,0,0.6-0.2,0.6-0.6v-15.6
		c0-0.4-0.2-0.6-0.6-0.6h-2.2c-0.4,0-0.6,0.2-0.6,0.6v5.8c0,0.2-0.1,0.3-0.3,0.3h-6.7c-0.2,0-0.3-0.1-0.3-0.3v-5.8
		c0-0.4-0.2-0.6-0.6-0.6H202z"/>
	<path class="st1" d="M232.6,115.6c0,0.3,0,0.3-0.3,0.3h-2.2c-2.3,0-3.5-0.8-3.5-2.4c0-1.6,1.2-2.4,3.6-2.4h2.1
		c0.2,0,0.3,0.1,0.3,0.3V115.6z M223.1,113.6c0,2.3,1.1,3.7,3.1,4.5l-3.9,5.9c-0.1,0.2-0.2,0.3-0.2,0.4c0,0.2,0.2,0.3,0.5,0.3h2.4
		c0.6,0,0.9-0.2,1.2-0.7l3.1-4.8c0.2-0.3,0.3-0.3,0.6-0.3h2.3c0.3,0,0.3,0.1,0.3,0.3v4.9c0,0.4,0.2,0.6,0.6,0.6h2.2
		c0.4,0,0.6-0.2,0.6-0.6v-15.6c0-0.4-0.2-0.6-0.6-0.6h-5.4C225.5,108,223.1,110,223.1,113.6z"/>
</g>
</svg>
